<mxfile host="app.diagrams.net" agent="Mozilla/5.0 (X11; Ubuntu; Linux x86_64; rv:134.0) Gecko/20100101 Firefox/134.0" version="26.0.11">
  <diagram name="Security" id="7_t-huLyqTZaK8C2pLEU">
    <mxGraphModel dx="1912" dy="1095" grid="1" gridSize="10" guides="1" tooltips="1" connect="1" arrows="1" fold="1" page="1" pageScale="1" pageWidth="4681" pageHeight="3300" math="0" shadow="0">
      <root>
        <mxCell id="0" />
        <mxCell id="1" parent="0" />
        <mxCell id="LIGulVqqEWgQpyWQHzmR-32" value="" style="rounded=0;whiteSpace=wrap;html=1;dashed=1;" vertex="1" parent="1">
          <mxGeometry x="680" y="570" width="300" height="240" as="geometry" />
        </mxCell>
        <mxCell id="LIGulVqqEWgQpyWQHzmR-20" value="" style="edgeStyle=entityRelationEdgeStyle;rounded=0;orthogonalLoop=1;jettySize=auto;html=1;entryX=0;entryY=0.5;entryDx=0;entryDy=0;" edge="1" parent="1" source="LIGulVqqEWgQpyWQHzmR-1" target="LIGulVqqEWgQpyWQHzmR-6">
          <mxGeometry relative="1" as="geometry" />
        </mxCell>
        <mxCell id="LIGulVqqEWgQpyWQHzmR-21" value="" style="edgeStyle=orthogonalEdgeStyle;rounded=0;orthogonalLoop=1;jettySize=auto;html=1;entryX=0;entryY=0.5;entryDx=0;entryDy=0;" edge="1" parent="1" source="LIGulVqqEWgQpyWQHzmR-1" target="LIGulVqqEWgQpyWQHzmR-5">
          <mxGeometry relative="1" as="geometry" />
        </mxCell>
        <mxCell id="LIGulVqqEWgQpyWQHzmR-23" style="edgeStyle=orthogonalEdgeStyle;rounded=0;orthogonalLoop=1;jettySize=auto;html=1;" edge="1" parent="1" source="LIGulVqqEWgQpyWQHzmR-1" target="LIGulVqqEWgQpyWQHzmR-4">
          <mxGeometry relative="1" as="geometry">
            <mxPoint x="460" y="650" as="targetPoint" />
          </mxGeometry>
        </mxCell>
        <mxCell id="LIGulVqqEWgQpyWQHzmR-1" value="접근제어" style="rounded=1;whiteSpace=wrap;html=1;" vertex="1" parent="1">
          <mxGeometry x="300" y="620" width="120" height="60" as="geometry" />
        </mxCell>
        <UserObject label="https://kubernetes.io/ko/docs/concepts/security/controlling-access/" link="https://kubernetes.io/ko/docs/concepts/security/controlling-access/" id="LIGulVqqEWgQpyWQHzmR-3">
          <mxCell style="text;whiteSpace=wrap;" vertex="1" parent="1">
            <mxGeometry x="40" y="40" width="380" height="40" as="geometry" />
          </mxCell>
        </UserObject>
        <mxCell id="LIGulVqqEWgQpyWQHzmR-33" value="" style="edgeStyle=orthogonalEdgeStyle;rounded=0;orthogonalLoop=1;jettySize=auto;html=1;" edge="1" parent="1" source="LIGulVqqEWgQpyWQHzmR-4" target="LIGulVqqEWgQpyWQHzmR-32">
          <mxGeometry relative="1" as="geometry" />
        </mxCell>
        <mxCell id="LIGulVqqEWgQpyWQHzmR-4" value="Authentication" style="rounded=1;whiteSpace=wrap;html=1;" vertex="1" parent="1">
          <mxGeometry x="480" y="620" width="120" height="60" as="geometry" />
        </mxCell>
        <mxCell id="LIGulVqqEWgQpyWQHzmR-5" value="Authorization" style="rounded=1;whiteSpace=wrap;html=1;" vertex="1" parent="1">
          <mxGeometry x="480" y="690" width="120" height="60" as="geometry" />
        </mxCell>
        <mxCell id="LIGulVqqEWgQpyWQHzmR-6" value="&lt;div&gt;Admission&lt;/div&gt;&lt;div&gt;Control&lt;br&gt;&lt;/div&gt;" style="rounded=1;whiteSpace=wrap;html=1;" vertex="1" parent="1">
          <mxGeometry x="480" y="770" width="120" height="60" as="geometry" />
        </mxCell>
        <mxCell id="LIGulVqqEWgQpyWQHzmR-9" value="Authorization&lt;br&gt;Module" style="rounded=1;whiteSpace=wrap;html=1;" vertex="1" parent="1">
          <mxGeometry x="310" y="1010" width="120" height="60" as="geometry" />
        </mxCell>
        <mxCell id="LIGulVqqEWgQpyWQHzmR-10" value="RBAC" style="rounded=1;whiteSpace=wrap;html=1;" vertex="1" parent="1">
          <mxGeometry x="480" y="920" width="120" height="40" as="geometry" />
        </mxCell>
        <mxCell id="LIGulVqqEWgQpyWQHzmR-12" value="ABAC" style="rounded=1;whiteSpace=wrap;html=1;" vertex="1" parent="1">
          <mxGeometry x="480" y="970" width="120" height="40" as="geometry" />
        </mxCell>
        <mxCell id="LIGulVqqEWgQpyWQHzmR-13" value="Webhook" style="rounded=1;whiteSpace=wrap;html=1;" vertex="1" parent="1">
          <mxGeometry x="480" y="1020" width="120" height="40" as="geometry" />
        </mxCell>
        <mxCell id="LIGulVqqEWgQpyWQHzmR-14" value="Node" style="rounded=1;whiteSpace=wrap;html=1;" vertex="1" parent="1">
          <mxGeometry x="480" y="1070" width="120" height="40" as="geometry" />
        </mxCell>
        <mxCell id="LIGulVqqEWgQpyWQHzmR-15" value="&lt;div&gt;Authorization 정책은 적용후 테스트까지 간단히 확인해야하지 않을까?&lt;/div&gt;&lt;div&gt;ex) kubectl auth can-i create deployments --namespace dev&lt;br&gt;&lt;/div&gt;" style="text;html=1;align=center;verticalAlign=middle;resizable=0;points=[];autosize=1;strokeColor=none;fillColor=none;" vertex="1" parent="1">
          <mxGeometry x="300" y="1140" width="370" height="40" as="geometry" />
        </mxCell>
        <mxCell id="LIGulVqqEWgQpyWQHzmR-16" value="" style="shape=image;verticalLabelPosition=bottom;labelBackgroundColor=default;verticalAlign=top;imageAspect=0;image=https://kubernetes.io/images/docs/admin/access-control-overview.svg;" vertex="1" parent="1">
          <mxGeometry x="40" y="80" width="795" height="480" as="geometry" />
        </mxCell>
        <mxCell id="LIGulVqqEWgQpyWQHzmR-19" value="ServiceAccount" style="rounded=1;whiteSpace=wrap;html=1;" vertex="1" parent="1">
          <mxGeometry x="110" y="620" width="120" height="60" as="geometry" />
        </mxCell>
        <mxCell id="LIGulVqqEWgQpyWQHzmR-24" value="X.509" style="rounded=1;whiteSpace=wrap;html=1;" vertex="1" parent="1">
          <mxGeometry x="700" y="590" width="120" height="40" as="geometry" />
        </mxCell>
        <mxCell id="LIGulVqqEWgQpyWQHzmR-25" value="Static token file" style="rounded=1;whiteSpace=wrap;html=1;" vertex="1" parent="1">
          <mxGeometry x="700" y="640" width="120" height="40" as="geometry" />
        </mxCell>
        <mxCell id="LIGulVqqEWgQpyWQHzmR-26" value="Bootstrap token" style="rounded=1;whiteSpace=wrap;html=1;" vertex="1" parent="1">
          <mxGeometry x="700" y="690" width="120" height="40" as="geometry" />
        </mxCell>
        <mxCell id="LIGulVqqEWgQpyWQHzmR-27" value="ServiceAccount&lt;br&gt;Secret token" style="rounded=1;whiteSpace=wrap;html=1;" vertex="1" parent="1">
          <mxGeometry x="700" y="740" width="120" height="40" as="geometry" />
        </mxCell>
        <mxCell id="LIGulVqqEWgQpyWQHzmR-28" value="TokenRequest&lt;br&gt;API token" style="rounded=1;whiteSpace=wrap;html=1;" vertex="1" parent="1">
          <mxGeometry x="835" y="590" width="120" height="40" as="geometry" />
        </mxCell>
        <mxCell id="LIGulVqqEWgQpyWQHzmR-29" value="OIDC" style="rounded=1;whiteSpace=wrap;html=1;" vertex="1" parent="1">
          <mxGeometry x="835" y="640" width="120" height="40" as="geometry" />
        </mxCell>
        <mxCell id="LIGulVqqEWgQpyWQHzmR-30" value="Webhook" style="rounded=1;whiteSpace=wrap;html=1;" vertex="1" parent="1">
          <mxGeometry x="835" y="690" width="120" height="40" as="geometry" />
        </mxCell>
        <mxCell id="LIGulVqqEWgQpyWQHzmR-31" value="Authenticating Proxy" style="rounded=1;whiteSpace=wrap;html=1;" vertex="1" parent="1">
          <mxGeometry x="835" y="740" width="120" height="40" as="geometry" />
        </mxCell>
      </root>
    </mxGraphModel>
  </diagram>
</mxfile>
